<svg width="737" height="179" viewBox="0 0 737 179" fill="none" xmlns="http://www.w3.org/2000/svg">
<path d="M0.309571 51H37.0596V-1.19209e-05H68.5596V51H113.31V81H68.5596V137.5C68.5596 142.5 70.8096 145 75.3096 145H108.81V175H56.3096C50.6429 175 45.9762 173.167 42.3096 169.5C38.8096 165.833 37.0596 161.167 37.0596 155.5V81H0.309571V51ZM150.886 51H203.386V69H207.886C210.219 62.1667 214.136 56.9167 219.636 53.25C225.302 49.4167 232.052 47.5 239.886 47.5C252.219 47.5 262.136 51.4167 269.636 59.25C277.136 66.9167 280.886 78.6667 280.886 94.5V100L248.386 103V99.5C248.386 92.6667 246.636 87.25 243.136 83.25C239.636 79.0833 234.386 77 227.386 77C220.386 77 214.886 79.4167 210.886 84.25C206.886 89.0833 204.886 96 204.886 105V145H233.386V175H147.886V145H173.386V81H150.886V51ZM431.462 114.5C431.462 124.833 429.712 134 426.212 142C422.712 149.833 417.962 156.5 411.962 162C405.962 167.333 399.045 171.417 391.212 174.25C383.545 177.083 375.462 178.5 366.962 178.5C358.462 178.5 350.295 177.083 342.462 174.25C334.795 171.417 327.962 167.333 321.962 162C315.962 156.5 311.212 149.833 307.712 142C304.212 134 302.462 124.833 302.462 114.5V111.5C302.462 101.333 304.212 92.3333 307.712 84.5C311.212 76.5 315.962 69.75 321.962 64.25C327.962 58.75 334.795 54.5833 342.462 51.75C350.295 48.9167 358.462 47.5 366.962 47.5C375.462 47.5 383.545 48.9167 391.212 51.75C399.045 54.5833 405.962 58.75 411.962 64.25C417.962 69.75 422.712 76.5 426.212 84.5C429.712 92.3333 431.462 101.333 431.462 111.5V114.5ZM366.962 148.5C371.462 148.5 375.712 147.75 379.712 146.25C383.712 144.75 387.212 142.583 390.212 139.75C393.212 136.917 395.545 133.5 397.212 129.5C399.045 125.333 399.962 120.667 399.962 115.5V110.5C399.962 105.333 399.045 100.75 397.212 96.75C395.545 92.5833 393.212 89.0833 390.212 86.25C387.212 83.4167 383.712 81.25 379.712 79.75C375.712 78.25 371.462 77.5 366.962 77.5C362.462 77.5 358.212 78.25 354.212 79.75C350.212 81.25 346.712 83.4167 343.712 86.25C340.712 89.0833 338.295 92.5833 336.462 96.75C334.795 100.75 333.962 105.333 333.962 110.5V115.5C333.962 120.667 334.795 125.333 336.462 129.5C338.295 133.5 340.712 136.917 343.712 139.75C346.712 142.583 350.212 144.75 354.212 146.25C358.212 147.75 362.462 148.5 366.962 148.5ZM584.538 114.5C584.538 124.833 582.788 134 579.288 142C575.788 149.833 571.038 156.5 565.038 162C559.038 167.333 552.121 171.417 544.288 174.25C536.621 177.083 528.538 178.5 520.038 178.5C511.538 178.5 503.371 177.083 495.538 174.25C487.871 171.417 481.038 167.333 475.038 162C469.038 156.5 464.288 149.833 460.788 142C457.288 134 455.538 124.833 455.538 114.5V111.5C455.538 101.333 457.288 92.3333 460.788 84.5C464.288 76.5 469.038 69.75 475.038 64.25C481.038 58.75 487.871 54.5833 495.538 51.75C503.371 48.9167 511.538 47.5 520.038 47.5C528.538 47.5 536.621 48.9167 544.288 51.75C552.121 54.5833 559.038 58.75 565.038 64.25C571.038 69.75 575.788 76.5 579.288 84.5C582.788 92.3333 584.538 101.333 584.538 111.5V114.5ZM520.038 148.5C524.538 148.5 528.788 147.75 532.788 146.25C536.788 144.75 540.288 142.583 543.288 139.75C546.288 136.917 548.621 133.5 550.288 129.5C552.121 125.333 553.038 120.667 553.038 115.5V110.5C553.038 105.333 552.121 100.75 550.288 96.75C548.621 92.5833 546.288 89.0833 543.288 86.25C540.288 83.4167 536.788 81.25 532.788 79.75C528.788 78.25 524.538 77.5 520.038 77.5C515.538 77.5 511.288 78.25 507.288 79.75C503.288 81.25 499.788 83.4167 496.788 86.25C493.788 89.0833 491.371 92.5833 489.538 96.75C487.871 100.75 487.038 105.333 487.038 110.5V115.5C487.038 120.667 487.871 125.333 489.538 129.5C491.371 133.5 493.788 136.917 496.788 139.75C499.788 142.583 503.288 144.75 507.288 146.25C511.288 147.75 515.538 148.5 520.038 148.5ZM705.114 157H700.614C699.281 159.833 697.614 162.583 695.614 165.25C693.781 167.75 691.281 170 688.114 172C685.114 174 681.448 175.583 677.114 176.75C672.948 177.917 667.864 178.5 661.864 178.5C654.198 178.5 647.031 177.167 640.364 174.5C633.864 171.667 628.114 167.583 623.114 162.25C618.281 156.75 614.448 150.083 611.614 142.25C608.948 134.417 607.614 125.417 607.614 115.25V110.75C607.614 100.75 609.031 91.8333 611.864 84C614.864 76.1667 618.864 69.5833 623.864 64.25C629.031 58.75 634.948 54.5833 641.614 51.75C648.448 48.9167 655.614 47.5 663.114 47.5C673.114 47.5 681.031 49.4167 686.864 53.25C692.698 56.9167 697.281 62.1667 700.614 69H705.114V-1.19209e-05H736.614V175H705.114V157ZM672.114 148.5C681.948 148.5 689.864 145.417 695.864 139.25C702.031 132.917 705.114 124.667 705.114 114.5V111.5C705.114 101.333 702.031 93.1667 695.864 87C689.864 80.6667 681.948 77.5 672.114 77.5C662.281 77.5 654.281 80.5833 648.114 86.75C642.114 92.75 639.114 101 639.114 111.5V114.5C639.114 125 642.114 133.333 648.114 139.5C654.281 145.5 662.281 148.5 672.114 148.5Z" fill="black"/>
</svg>
