<svg width="317" height="120" viewBox="0 0 317 120" fill="none" xmlns="http://www.w3.org/2000/svg">
<path d="M33.6406 55.9688C33.5469 57.5938 33.3281 59.2344 32.9844 60.8906C32.6406 62.5156 32.0938 63.9844 31.3438 65.2969C30.625 66.6094 29.6719 67.6875 28.4844 68.5312C27.2969 69.3438 25.8281 69.75 24.0781 69.75C22.9844 69.75 22.0156 69.5781 21.1719 69.2344C20.3594 68.9219 19.6406 68.5 19.0156 67.9688C18.4219 67.4062 17.9219 66.7812 17.5156 66.0938C17.1094 65.375 16.7656 64.625 16.4844 63.8438C15.3906 65.6562 14.0938 67.0625 12.5938 68.0625C11.125 69.0312 9.65625 69.5156 8.1875 69.5156C7 69.5156 5.92188 69.2969 4.95312 68.8594C4.01562 68.4219 3.20312 67.8125 2.51562 67.0312C1.85938 66.2188 1.34375 65.25 0.96875 64.125C0.59375 63 0.40625 61.7344 0.40625 60.3281C0.40625 57.9844 0.609375 55.9688 1.01562 54.2812C1.45312 52.5625 1.92188 51.1562 2.42188 50.0625C2.95312 48.9688 3.4375 48.1562 3.875 47.625C4.3125 47.0625 4.53125 46.7812 4.53125 46.7812C4.6875 46.5938 4.875 46.4531 5.09375 46.3594C5.34375 46.2656 5.59375 46.2188 5.84375 46.2188C6.34375 46.2188 6.75 46.4062 7.0625 46.7812C7.40625 47.125 7.57812 47.5312 7.57812 48C7.57812 48.3438 7.45312 48.7188 7.20312 49.125C7.07812 49.3125 6.82812 49.6719 6.45312 50.2031C6.10938 50.7344 5.75 51.4531 5.375 52.3594C5 53.2656 4.65625 54.375 4.34375 55.6875C4.0625 57 3.92188 58.5469 3.92188 60.3281C3.92188 62.1719 4.29688 63.5781 5.04688 64.5469C5.79688 65.4844 6.84375 65.9531 8.1875 65.9531C8.84375 65.9531 9.5625 65.7812 10.3438 65.4375C11.125 65.0625 11.8594 64.5 12.5469 63.75C13.2344 63 13.8281 62.0469 14.3281 60.8906C14.8281 59.7344 15.1406 58.375 15.2656 56.8125L15.875 48.75C15.9062 48.2812 16.0938 47.8906 16.4375 47.5781C16.8125 47.2656 17.2344 47.1094 17.7031 47.1094C18.2344 47.1094 18.6562 47.3125 18.9688 47.7188C19.2812 48.0938 19.4375 48.5312 19.4375 49.0312L18.9219 56.7656C18.8281 58.4219 18.875 59.8438 19.0625 61.0312C19.2812 62.2188 19.625 63.2031 20.0938 63.9844C20.5625 64.7344 21.1406 65.2969 21.8281 65.6719C22.5156 66.0156 23.2812 66.1875 24.125 66.1875C25.25 66.1875 26.2031 65.8594 26.9844 65.2031C27.7656 64.5469 28.3906 63.6562 28.8594 62.5312C29.3281 61.4062 29.6562 60.1094 29.8438 58.6406C30.0625 57.1406 30.1719 55.5625 30.1719 53.9062C30.1719 51.9375 30.0625 50.2969 29.8438 48.9844C29.625 47.6719 29.5156 46.7969 29.5156 46.3594C29.5156 45.8906 29.6875 45.4844 30.0312 45.1406C30.375 44.7656 30.7969 44.5781 31.2969 44.5781C31.7344 44.5781 32.1094 44.7188 32.4219 45C32.7344 45.25 32.9375 45.5938 33.0312 46.0312C33.0625 46.1562 33.1562 46.5156 33.3125 47.1094C33.4688 47.7031 33.6875 48.4219 33.9688 49.2656C34.25 50.0781 34.6094 50.9531 35.0469 51.8906C35.5156 52.7969 36.0625 53.6406 36.6875 54.4219C37.3438 55.2031 38.0781 55.8594 38.8906 56.3906C39.7344 56.8906 40.6875 57.1406 41.75 57.1406C42.3438 57.1406 42.8438 57.0312 43.25 56.8125C43.6875 56.5625 44.0469 56.2812 44.3281 55.9688C44.6094 55.6562 44.8125 55.3594 44.9375 55.0781C45.0938 54.7969 45.1875 54.625 45.2188 54.5625C45.375 54.2188 45.5938 53.9531 45.875 53.7656C46.1875 53.5469 46.5156 53.4375 46.8594 53.4375C47.3906 53.4375 47.8125 53.6406 48.125 54.0469C48.4688 54.4219 48.6406 54.8281 48.6406 55.2656C48.6406 55.6406 48.4688 56.1406 48.125 56.7656C47.8125 57.3906 47.3594 58 46.7656 58.5938C46.1719 59.1562 45.4375 59.6562 44.5625 60.0938C43.7188 60.5 42.7812 60.7031 41.75 60.7031C40.8438 60.7031 40 60.5781 39.2188 60.3281C38.4375 60.0469 37.7031 59.6875 37.0156 59.25C36.3594 58.8125 35.75 58.3125 35.1875 57.75C34.625 57.1875 34.1094 56.5938 33.6406 55.9688ZM81.5469 55.9219C81.4219 56.1719 81.1562 56.7031 80.75 57.5156C80.375 58.2969 79.875 59.2031 79.25 60.2344C78.6562 61.2656 77.9531 62.3438 77.1406 63.4688C76.3281 64.5938 75.4219 65.625 74.4219 66.5625C73.4219 67.5 72.3438 68.2812 71.1875 68.9062C70.0312 69.5 68.8125 69.7969 67.5312 69.7969C65.7188 69.7969 64.1875 69.2188 62.9375 68.0625C61.7188 66.9062 60.8281 65.4531 60.2656 63.7031C59.2031 65.4844 57.9375 66.9062 56.4688 67.9688C55 69 53.5312 69.5156 52.0625 69.5156C50.9062 69.5156 49.8594 69.3125 48.9219 68.9062C47.9844 68.4688 47.1875 67.875 46.5312 67.125C45.875 66.3438 45.3594 65.4375 44.9844 64.4062C44.6406 63.375 44.4688 62.25 44.4688 61.0312C44.4688 58.5938 44.875 56.4531 45.6875 54.6094C46.5312 52.7344 47.5938 51.1719 48.875 49.9219C50.1562 48.6719 51.5625 47.7344 53.0938 47.1094C54.6562 46.4844 56.1562 46.1719 57.5938 46.1719C58.5625 46.1719 59.4531 46.3125 60.2656 46.5938C61.0781 46.8438 61.7656 47.125 62.3281 47.4375C62.9219 47.75 63.375 48.0469 63.6875 48.3281C64 48.5781 64.1719 48.7188 64.2031 48.75C64.5469 49.1562 64.7188 49.5781 64.7188 50.0156C64.7188 50.4844 64.5469 50.9062 64.2031 51.2812C63.8594 51.625 63.4531 51.7969 62.9844 51.7969C62.4844 51.7969 62.0625 51.625 61.7188 51.2812C61.6562 51.2188 61.5156 51.1094 61.2969 50.9531C61.0781 50.7656 60.7812 50.5781 60.4062 50.3906C60.0312 50.2031 59.5781 50.0469 59.0469 49.9219C58.5469 49.7656 57.9688 49.6875 57.3125 49.6875C56.3438 49.6875 55.3125 49.9062 54.2188 50.3438C53.125 50.7812 52.125 51.4688 51.2188 52.4062C50.3125 53.3125 49.5469 54.4688 48.9219 55.875C48.3281 57.25 48.0312 58.8906 48.0312 60.7969C48.0312 61.3906 48.0938 62 48.2188 62.625C48.3438 63.2188 48.5625 63.7656 48.875 64.2656C49.1875 64.7656 49.6094 65.1719 50.1406 65.4844C50.6719 65.7969 51.3281 65.9531 52.1094 65.9531C52.6719 65.9531 53.3125 65.7656 54.0312 65.3906C54.7812 65.0156 55.4844 64.4375 56.1406 63.6562C56.8281 62.875 57.4375 61.8906 57.9688 60.7031C58.5312 59.5156 58.9219 58.1094 59.1406 56.4844C59.2031 56.0469 59.4062 55.6875 59.75 55.4062C60.0938 55.0938 60.5 54.9375 60.9688 54.9375C61.4062 54.9375 61.7812 55.1094 62.0938 55.4531C62.4375 55.7969 62.625 56.1875 62.6562 56.625C62.6875 57.2188 62.75 58.0625 62.8438 59.1562C62.9375 60.2188 63.1406 61.2812 63.4531 62.3438C63.7969 63.4062 64.2969 64.3281 64.9531 65.1094C65.6094 65.8906 66.5156 66.2812 67.6719 66.2812C68.4219 66.2812 69.1562 66.0781 69.875 65.6719C70.625 65.2656 71.3438 64.7344 72.0312 64.0781C72.75 63.3906 73.4219 62.625 74.0469 61.7812C74.7031 60.9062 75.2969 60.0312 75.8281 59.1562C76.3594 58.2812 76.8281 57.4375 77.2344 56.625C77.6406 55.8125 77.9844 55.1094 78.2656 54.5156C78.4219 54.1719 78.6406 53.9062 78.9219 53.7188C79.2344 53.5312 79.5625 53.4375 79.9062 53.4375C80.4375 53.4375 80.8594 53.6406 81.1719 54.0469C81.5156 54.4219 81.6875 54.8281 81.6875 55.2656C81.6875 55.4844 81.6406 55.7031 81.5469 55.9219ZM97.2969 54.2344C96.8281 56.4219 96.1562 58.4688 95.2812 60.375C94.4062 62.25 93.4688 63.8906 92.4688 65.2969C91.5 66.7031 90.5156 67.8125 89.5156 68.625C88.5156 69.4375 87.6562 69.875 86.9375 69.9375C86.125 69.9375 85.2188 69.5312 84.2188 68.7188C83.25 67.9062 82.3125 66.7812 81.4062 65.3438C80.5312 63.875 79.7969 62.1406 79.2031 60.1406C78.6094 58.1406 78.3125 55.9688 78.3125 53.625C78.3125 51.5625 78.4844 50 78.8281 48.9375C79.2031 47.875 79.4375 47.2656 79.5312 47.1094C79.6875 46.8281 79.8906 46.6094 80.1406 46.4531C80.4219 46.2969 80.7344 46.2188 81.0781 46.2188C81.6094 46.2188 82.0312 46.4062 82.3438 46.7812C82.6562 47.125 82.8125 47.5156 82.8125 47.9531C82.8125 48.2656 82.75 48.5312 82.625 48.75C82.5938 48.8125 82.4531 49.2344 82.2031 50.0156C81.9531 50.7969 81.8281 51.9688 81.8281 53.5312C81.8281 55.375 82.0156 57.0781 82.3906 58.6406C82.7656 60.2031 83.2188 61.5469 83.75 62.6719C84.2812 63.7969 84.8281 64.6875 85.3906 65.3438C85.9844 65.9688 86.4688 66.2812 86.8438 66.2812C87.0938 66.2812 87.4531 66.0469 87.9219 65.5781C88.4219 65.1094 88.9375 64.4688 89.4688 63.6562C90.0312 62.8438 90.5938 61.875 91.1562 60.75C91.75 59.625 92.2812 58.4062 92.75 57.0938C93.25 55.75 93.6406 54.3438 93.9219 52.875C94.2344 51.375 94.3906 49.8594 94.3906 48.3281C94.3906 48.0156 94.375 47.7188 94.3438 47.4375C94.3438 47.125 94.3438 46.8125 94.3438 46.5C94.3438 45.9688 94.5 45.5312 94.8125 45.1875C95.1562 44.8125 95.5938 44.625 96.125 44.625C96.5312 44.625 96.8906 44.75 97.2031 45C97.5469 45.25 97.7656 45.5938 97.8594 46.0312C97.8594 46 97.9219 46.25 98.0469 46.7812C98.1719 47.3125 98.375 48 98.6562 48.8438C98.9688 49.6562 99.3438 50.5469 99.7812 51.5156C100.25 52.4844 100.797 53.3906 101.422 54.2344C102.078 55.0469 102.828 55.7344 103.672 56.2969C104.516 56.8594 105.484 57.1406 106.578 57.1406C107.172 57.1406 107.688 57.0156 108.125 56.7656C108.562 56.5156 108.922 56.2344 109.203 55.9219C109.484 55.6094 109.688 55.3125 109.812 55.0312C109.969 54.75 110.047 54.5938 110.047 54.5625C110.172 54.2188 110.375 53.9531 110.656 53.7656C110.969 53.5469 111.312 53.4375 111.688 53.4375C112.188 53.4375 112.609 53.625 112.953 54C113.297 54.3438 113.469 54.75 113.469 55.2188C113.469 55.4375 113.422 55.6562 113.328 55.875C113.141 56.3125 112.859 56.8125 112.484 57.375C112.141 57.9375 111.688 58.4688 111.125 58.9688C110.562 59.4688 109.891 59.8906 109.109 60.2344C108.359 60.5469 107.516 60.7031 106.578 60.7031C105.484 60.7031 104.469 60.5156 103.531 60.1406C102.594 59.7344 101.734 59.2344 100.953 58.6406C100.203 58.0156 99.5156 57.3281 98.8906 56.5781C98.2656 55.7969 97.7344 55.0156 97.2969 54.2344ZM115.719 63.8438C116.375 64.75 117.219 65.4844 118.25 66.0469C119.281 66.5781 120.547 66.8438 122.047 66.8438C123.578 66.8438 124.969 66.4844 126.219 65.7656C127.469 65.0156 128.609 64.0469 129.641 62.8594C130.672 61.6719 131.594 60.3438 132.406 58.875C133.219 57.4062 133.953 55.9375 134.609 54.4688C134.766 54.125 134.984 53.875 135.266 53.7188C135.547 53.5312 135.859 53.4375 136.203 53.4375C136.734 53.4375 137.156 53.625 137.469 54C137.812 54.375 137.984 54.7812 137.984 55.2188C137.984 55.375 137.969 55.5156 137.938 55.6406C137.906 55.7344 137.859 55.8438 137.797 55.9688C135.641 60.7188 133.281 64.2969 130.719 66.7031C128.188 69.1094 125.312 70.3438 122.094 70.4062C120.031 70.4062 118.25 70 116.75 69.1875C115.25 68.4062 114.016 67.3906 113.047 66.1406C112.078 64.8594 111.359 63.4219 110.891 61.8281C110.422 60.2344 110.188 58.6406 110.188 57.0469C110.188 55.4531 110.375 53.9844 110.75 52.6406C111.156 51.2969 111.719 50.125 112.438 49.125C113.188 48.125 114.062 47.3438 115.062 46.7812C116.094 46.2188 117.219 45.9375 118.438 45.9375C119.156 45.9375 119.859 46.0938 120.547 46.4062C121.266 46.6875 121.906 47.1094 122.469 47.6719C123.031 48.2031 123.484 48.8594 123.828 49.6406C124.172 50.4219 124.344 51.3125 124.344 52.3125C124.344 53.5938 124.125 54.7969 123.688 55.9219C123.25 57.0469 122.641 58.0938 121.859 59.0625C121.109 60.0312 120.203 60.9219 119.141 61.7344C118.078 62.5469 116.938 63.25 115.719 63.8438ZM114.312 60.7969C115.281 60.3906 116.156 59.875 116.938 59.25C117.75 58.625 118.438 57.9375 119 57.1875C119.562 56.4375 120 55.6562 120.312 54.8438C120.625 54 120.781 53.1562 120.781 52.3125C120.781 51.375 120.547 50.6719 120.078 50.2031C119.609 49.7031 119.062 49.4531 118.438 49.4531C117.594 49.4531 116.875 49.6875 116.281 50.1562C115.688 50.625 115.203 51.2344 114.828 51.9844C114.453 52.7344 114.172 53.5781 113.984 54.5156C113.828 55.4219 113.75 56.3281 113.75 57.2344C113.75 57.7969 113.797 58.3906 113.891 59.0156C114.016 59.6406 114.156 60.2344 114.312 60.7969ZM161.328 56.0156C160.984 56.7344 160.547 57.5938 160.016 58.5938C159.516 59.5625 158.938 60.5781 158.281 61.6406C157.625 62.7031 156.891 63.7656 156.078 64.8281C155.266 65.8594 154.375 66.7969 153.406 67.6406C152.469 68.4531 151.453 69.1094 150.359 69.6094C149.297 70.1406 148.156 70.4062 146.938 70.4062C145.062 70.4062 143.453 69.8281 142.109 68.6719C140.766 67.5156 139.625 66 138.688 64.125C137.75 62.25 136.984 60.125 136.391 57.75C135.828 55.3438 135.391 52.9062 135.078 50.4375C134.766 47.9375 134.547 45.5156 134.422 43.1719C134.328 40.8281 134.281 38.75 134.281 36.9375C134.281 34.3125 134.359 31.5938 134.516 28.7812C134.703 25.9688 134.984 23.2188 135.359 20.5312C135.734 17.8438 136.203 15.2969 136.766 12.8906C137.359 10.4844 138.047 8.375 138.828 6.5625C139.641 4.75 140.562 3.3125 141.594 2.25C142.625 1.1875 143.797 0.65625 145.109 0.65625C146.141 0.65625 147.062 0.90625 147.875 1.40625C148.719 1.875 149.422 2.65625 149.984 3.75C150.547 4.84375 150.984 6.26563 151.297 8.01562C151.609 9.76562 151.766 11.9062 151.766 14.4375C151.766 17.5625 151.438 20.7969 150.781 24.1406C150.125 27.4531 149.234 30.7969 148.109 34.1719C146.984 37.5469 145.656 40.9219 144.125 44.2969C142.594 47.6406 140.953 50.9062 139.203 54.0938C139.984 58.0625 141.031 61.1875 142.344 63.4688C143.656 65.7188 145.234 66.8438 147.078 66.8438C148.328 66.8438 149.531 66.3594 150.688 65.3906C151.844 64.3906 152.906 63.2188 153.875 61.875C154.844 60.5312 155.688 59.1719 156.406 57.7969C157.156 56.3906 157.734 55.2656 158.141 54.4219C158.297 54.1094 158.516 53.875 158.797 53.7188C159.078 53.5312 159.391 53.4375 159.734 53.4375C160.266 53.4375 160.688 53.625 161 54C161.344 54.375 161.516 54.7969 161.516 55.2656C161.516 55.4531 161.453 55.7031 161.328 56.0156ZM137.844 37.1719C137.844 39.1719 137.891 41.0938 137.984 42.9375C138.078 44.7812 138.203 46.5469 138.359 48.2344C139.672 45.7031 140.922 43.0156 142.109 40.1719C143.297 37.2969 144.344 34.4062 145.25 31.5C146.156 28.5625 146.875 25.6562 147.406 22.7812C147.969 19.875 148.25 17.1094 148.25 14.4844C148.25 10.7969 147.953 8.15625 147.359 6.5625C146.766 4.96875 145.969 4.17188 144.969 4.17188C144.312 4.17188 143.672 4.625 143.047 5.53125C142.453 6.4375 141.891 7.67188 141.359 9.23438C140.828 10.7969 140.344 12.6406 139.906 14.7656C139.469 16.8906 139.094 19.1719 138.781 21.6094C138.5 24.0469 138.266 26.5938 138.078 29.25C137.922 31.9062 137.844 34.5469 137.844 37.1719ZM163.812 63.8438C164.469 64.75 165.312 65.4844 166.344 66.0469C167.375 66.5781 168.641 66.8438 170.141 66.8438C171.672 66.8438 173.062 66.4844 174.312 65.7656C175.562 65.0156 176.703 64.0469 177.734 62.8594C178.766 61.6719 179.688 60.3438 180.5 58.875C181.312 57.4062 182.047 55.9375 182.703 54.4688C182.859 54.125 183.078 53.875 183.359 53.7188C183.641 53.5312 183.953 53.4375 184.297 53.4375C184.828 53.4375 185.25 53.625 185.562 54C185.906 54.375 186.078 54.7812 186.078 55.2188C186.078 55.375 186.062 55.5156 186.031 55.6406C186 55.7344 185.953 55.8438 185.891 55.9688C183.734 60.7188 181.375 64.2969 178.812 66.7031C176.281 69.1094 173.406 70.3438 170.188 70.4062C168.125 70.4062 166.344 70 164.844 69.1875C163.344 68.4062 162.109 67.3906 161.141 66.1406C160.172 64.8594 159.453 63.4219 158.984 61.8281C158.516 60.2344 158.281 58.6406 158.281 57.0469C158.281 55.4531 158.469 53.9844 158.844 52.6406C159.25 51.2969 159.812 50.125 160.531 49.125C161.281 48.125 162.156 47.3438 163.156 46.7812C164.188 46.2188 165.312 45.9375 166.531 45.9375C167.25 45.9375 167.953 46.0938 168.641 46.4062C169.359 46.6875 170 47.1094 170.562 47.6719C171.125 48.2031 171.578 48.8594 171.922 49.6406C172.266 50.4219 172.438 51.3125 172.438 52.3125C172.438 53.5938 172.219 54.7969 171.781 55.9219C171.344 57.0469 170.734 58.0938 169.953 59.0625C169.203 60.0312 168.297 60.9219 167.234 61.7344C166.172 62.5469 165.031 63.25 163.812 63.8438ZM162.406 60.7969C163.375 60.3906 164.25 59.875 165.031 59.25C165.844 58.625 166.531 57.9375 167.094 57.1875C167.656 56.4375 168.094 55.6562 168.406 54.8438C168.719 54 168.875 53.1562 168.875 52.3125C168.875 51.375 168.641 50.6719 168.172 50.2031C167.703 49.7031 167.156 49.4531 166.531 49.4531C165.688 49.4531 164.969 49.6875 164.375 50.1562C163.781 50.625 163.297 51.2344 162.922 51.9844C162.547 52.7344 162.266 53.5781 162.078 54.5156C161.922 55.4219 161.844 56.3281 161.844 57.2344C161.844 57.7969 161.891 58.3906 161.984 59.0156C162.109 59.6406 162.25 60.2344 162.406 60.7969ZM193.156 64.7812C193.656 63.75 194.234 62.625 194.891 61.4062C195.547 60.1562 196.25 58.9062 197 57.6562C197.75 56.375 198.531 55.1094 199.344 53.8594C200.188 52.6094 201.062 51.4219 201.969 50.2969C202.875 49.2031 203.781 48.4219 204.688 47.9531C205.625 47.4531 206.5 47.2031 207.312 47.2031C208.938 47.2031 210.141 47.7969 210.922 48.9844C211.703 50.1719 212.094 51.6406 212.094 53.3906C212.094 53.7969 212.062 54.2969 212 54.8906C211.969 55.4531 211.922 56.0625 211.859 56.7188C211.828 57.375 211.781 58.0469 211.719 58.7344C211.688 59.3906 211.672 60.0156 211.672 60.6094C211.672 61.3594 211.703 62.0781 211.766 62.7656C211.859 63.4531 212.016 64.0625 212.234 64.5938C212.453 65.0938 212.766 65.5 213.172 65.8125C213.578 66.0938 214.109 66.2344 214.766 66.2344C215.953 66.2344 217.109 65.7812 218.234 64.875C219.359 63.9375 220.391 62.8438 221.328 61.5938C222.297 60.3125 223.125 59.0156 223.812 57.7031C224.531 56.3906 225.062 55.3281 225.406 54.5156C225.562 54.1719 225.781 53.9062 226.062 53.7188C226.375 53.5312 226.703 53.4375 227.047 53.4375C227.578 53.4375 228 53.6406 228.312 54.0469C228.656 54.4219 228.828 54.8281 228.828 55.2656C228.828 55.4844 228.781 55.7031 228.688 55.9219C228.562 56.1719 228.312 56.6875 227.938 57.4688C227.562 58.25 227.062 59.1562 226.438 60.1875C225.844 61.1875 225.141 62.2656 224.328 63.4219C223.516 64.5469 222.609 65.5781 221.609 66.5156C220.641 67.4531 219.578 68.2344 218.422 68.8594C217.297 69.4844 216.109 69.7969 214.859 69.7969C213.453 69.7969 212.312 69.5312 211.438 69C210.562 68.4375 209.875 67.7188 209.375 66.8438C208.875 65.9375 208.531 64.9531 208.344 63.8906C208.188 62.7969 208.109 61.7031 208.109 60.6094C208.109 60.1406 208.125 59.6094 208.156 59.0156C208.219 58.4219 208.281 57.7969 208.344 57.1406C208.438 56.4844 208.5 55.8281 208.531 55.1719C208.594 54.5156 208.625 53.8906 208.625 53.2969C208.625 52.2969 208.469 51.625 208.156 51.2812C207.844 50.9062 207.562 50.7188 207.312 50.7188C206.812 50.7188 206.234 51.0156 205.578 51.6094C204.953 52.1719 204.281 52.9219 203.562 53.8594C202.875 54.7969 202.156 55.8594 201.406 57.0469C200.688 58.2031 200 59.3594 199.344 60.5156C198.719 61.6719 198.125 62.7812 197.562 63.8438C197.031 64.875 196.609 65.7344 196.297 66.4219C195.672 67.7344 195.047 68.6094 194.422 69.0469C193.797 69.5156 193.156 69.75 192.5 69.75C191.594 69.75 190.859 69.4844 190.297 68.9531C189.766 68.3906 189.5 67.6094 189.5 66.6094C189.5 66.3906 189.531 65.9688 189.594 65.3438C189.656 64.6875 189.734 63.9219 189.828 63.0469C189.922 62.1406 190.016 61.1719 190.109 60.1406C190.203 59.1094 190.297 58.0938 190.391 57.0938C190.484 56.0625 190.562 55.1094 190.625 54.2344C190.688 53.3594 190.719 52.625 190.719 52.0312C190.719 51.25 190.688 50.5 190.625 49.7812C190.562 49.0625 190.438 48.625 190.25 48.4688C189.969 48.5625 189.469 49.1562 188.75 50.25C188.031 51.3125 187.109 53.2031 185.984 55.9219C185.828 56.2656 185.594 56.5312 185.281 56.7188C184.969 56.9062 184.641 57 184.297 57C183.766 57 183.344 56.8281 183.031 56.4844C182.719 56.1094 182.562 55.6875 182.562 55.2188C182.562 55 182.609 54.7656 182.703 54.5156C184.109 51.1719 185.422 48.7188 186.641 47.1562C187.891 45.5625 189.125 44.7656 190.344 44.7656C191.062 44.7656 191.672 44.9531 192.172 45.3281C192.672 45.6719 193.062 46.1406 193.344 46.7344C193.656 47.3281 193.875 47.9844 194 48.7031C194.156 49.4219 194.234 50.1562 194.234 50.9062C194.234 51.4688 194.188 52.3438 194.094 53.5312C194.031 54.7188 193.938 56 193.812 57.375C193.688 58.7188 193.562 60.0625 193.438 61.4062C193.344 62.75 193.25 63.875 193.156 64.7812ZM242.469 73.5938C248.344 65.9375 252.422 59.5781 254.703 54.5156C254.859 54.1719 255.062 53.9219 255.312 53.7656C255.594 53.5781 255.906 53.4844 256.25 53.4844C256.781 53.4844 257.219 53.6719 257.562 54.0469C257.906 54.3906 258.078 54.7969 258.078 55.2656C258.078 55.4844 258.031 55.7031 257.938 55.9219C256.562 59.0469 254.609 62.5312 252.078 66.375C249.547 70.2188 246.344 74.5625 242.469 79.4062C242.469 81.375 242.484 83.3438 242.516 85.3125C242.547 87.2812 242.562 89.4375 242.562 91.7812C242.562 94.125 242.5 96.4375 242.375 98.7188C242.281 101.031 242.094 103.219 241.812 105.281C241.531 107.375 241.141 109.297 240.641 111.047C240.172 112.828 239.547 114.359 238.766 115.641C238.016 116.953 237.094 117.969 236 118.688C234.938 119.438 233.672 119.812 232.203 119.812C230.109 119.812 228.5 119.016 227.375 117.422C226.25 115.828 225.688 113.562 225.688 110.625C225.688 109.062 225.828 107.359 226.109 105.516C226.422 103.703 226.859 101.828 227.422 99.8906C227.984 97.9531 228.656 95.9844 229.438 93.9844C230.25 92.0156 231.141 90.0938 232.109 88.2188C233.078 86.3438 234.125 84.5469 235.25 82.8281C236.406 81.1094 237.625 79.5469 238.906 78.1406C238.938 75.9531 238.953 73.7812 238.953 71.625C238.984 69.4688 239.031 67.4844 239.094 65.6719C238.156 66.8594 237.031 67.7969 235.719 68.4844C234.438 69.1719 233.156 69.5156 231.875 69.5156C230.781 69.5156 229.781 69.3125 228.875 68.9062C228 68.4688 227.25 67.875 226.625 67.125C226 66.3438 225.516 65.4375 225.172 64.4062C224.828 63.375 224.656 62.25 224.656 61.0312C224.656 58.5938 225.062 56.4531 225.875 54.6094C226.719 52.7344 227.781 51.1719 229.062 49.9219C230.344 48.6719 231.75 47.7344 233.281 47.1094C234.844 46.4844 236.344 46.1719 237.781 46.1719C238.75 46.1719 239.641 46.2969 240.453 46.5469C241.266 46.7969 241.953 47.0781 242.516 47.3906C243.109 47.7031 243.562 48 243.875 48.2812C244.188 48.5625 244.359 48.7188 244.391 48.75C244.734 49.125 244.906 49.5469 244.906 50.0156C244.906 50.4844 244.734 50.9062 244.391 51.2812C244.047 51.625 243.641 51.7969 243.172 51.7969C242.734 51.7969 242.312 51.625 241.906 51.2812C241.781 51.1875 241.609 51.0625 241.391 50.9062C241.203 50.7188 240.938 50.5312 240.594 50.3438C240.281 50.1562 239.891 50 239.422 49.875C238.984 49.75 238.453 49.6875 237.828 49.6875C236.891 49.6875 235.859 49.9062 234.734 50.3438C233.609 50.75 232.562 51.4062 231.594 52.3125C230.625 53.2188 229.812 54.3906 229.156 55.8281C228.5 57.2344 228.172 58.9375 228.172 60.9375C228.172 62.4375 228.5 63.6562 229.156 64.5938C229.812 65.5 230.828 65.9531 232.203 65.9531C232.859 65.9531 233.547 65.7656 234.266 65.3906C235.016 65.0156 235.734 64.4375 236.422 63.6562C237.109 62.875 237.703 61.8906 238.203 60.7031C238.734 59.5156 239.109 58.1094 239.328 56.4844C239.391 56.0469 239.594 55.6875 239.938 55.4062C240.281 55.0938 240.688 54.9375 241.156 54.9375C241.688 54.9375 242.094 55.125 242.375 55.5C242.688 55.875 242.844 56.2969 242.844 56.7656C242.844 56.7969 242.828 57.2812 242.797 58.2188C242.766 59.125 242.734 60.3438 242.703 61.875C242.672 63.4062 242.625 65.1875 242.562 67.2188C242.531 69.2188 242.5 71.3438 242.469 73.5938ZM238.906 83.8594C237.438 85.8906 236.109 88.0938 234.922 90.4688C233.734 92.875 232.719 95.2969 231.875 97.7344C231.031 100.172 230.375 102.531 229.906 104.812C229.469 107.125 229.25 109.188 229.25 111C229.25 112.156 229.344 113.078 229.531 113.766C229.75 114.453 230 114.984 230.281 115.359C230.594 115.734 230.922 115.984 231.266 116.109C231.641 116.234 231.984 116.297 232.297 116.297C233.266 116.297 234.109 115.906 234.828 115.125C235.547 114.344 236.156 113.297 236.656 111.984C237.156 110.703 237.562 109.219 237.875 107.531C238.188 105.844 238.422 104.094 238.578 102.281C238.734 100.5 238.844 98.7188 238.906 96.9375C238.969 95.1562 239 93.5156 239 92.0156C239 90.6719 239 89.3281 239 87.9844C239 86.6406 238.969 85.2656 238.906 83.8594ZM292.719 22.0781C292.719 22.5781 292.547 22.9844 292.203 23.2969C291.859 23.5781 291.438 23.7188 290.938 23.7188H267.172V24.2344C267.172 26.1406 267.031 28.1719 266.75 30.3281C266.469 32.4844 266.078 34.6406 265.578 36.7969C265.109 38.9219 264.562 41 263.938 43.0312C263.344 45.0625 262.719 46.9375 262.062 48.6562C261.438 50.375 260.812 51.875 260.188 53.1562C259.562 54.4062 259 55.3438 258.5 55.9688C258.906 57.4062 259.391 58.75 259.953 60C260.516 61.2188 261.141 62.2969 261.828 63.2344C262.547 64.1406 263.312 64.8594 264.125 65.3906C264.938 65.9219 265.812 66.1875 266.75 66.1875C267.844 66.1875 268.922 65.7344 269.984 64.8281C271.078 63.8906 272.078 62.7969 272.984 61.5469C273.922 60.2656 274.734 58.9844 275.422 57.7031C276.141 56.3906 276.656 55.3438 276.969 54.5625C277.281 53.8125 277.828 53.4375 278.609 53.4375C279.141 53.4375 279.562 53.625 279.875 54C280.219 54.375 280.391 54.7812 280.391 55.2188C280.391 55.4375 280.344 55.6562 280.25 55.875C280.156 56.0938 279.922 56.5938 279.547 57.375C279.203 58.1562 278.734 59.0625 278.141 60.0938C277.578 61.125 276.906 62.2188 276.125 63.375C275.375 64.5 274.516 65.5312 273.547 66.4688C272.609 67.4062 271.594 68.1875 270.5 68.8125C269.406 69.4375 268.25 69.75 267.031 69.75C264.875 69.75 262.938 69.0469 261.219 67.6406C259.5 66.2344 258.031 64.2656 256.812 61.7344C255.625 59.2031 254.719 56.2031 254.094 52.7344C253.469 49.2656 253.156 45.4688 253.156 41.3438C253.156 40.3125 253.172 39.1094 253.203 37.7344C253.234 36.3281 253.297 34.8594 253.391 33.3281C253.484 31.7656 253.625 30.1719 253.812 28.5469C254 26.8906 254.25 25.2812 254.562 23.7188H237.734C237.234 23.7188 236.812 23.5781 236.469 23.2969C236.125 22.9844 235.953 22.5781 235.953 22.0781C235.953 21.5781 236.125 21.1875 236.469 20.9062C236.812 20.5938 237.234 20.4375 237.734 20.4375H255.359C255.672 19.3125 256.031 18.2812 256.438 17.3438C256.875 16.4062 257.359 15.5938 257.891 14.9062C258.453 14.2188 259.062 13.6875 259.719 13.3125C260.406 12.9062 261.156 12.7031 261.969 12.7031C262.75 12.7031 263.422 12.9062 263.984 13.3125C264.578 13.6875 265.078 14.2188 265.484 14.9062C265.891 15.5938 266.203 16.4062 266.422 17.3438C266.672 18.2812 266.859 19.3125 266.984 20.4375H290.938C291.438 20.4375 291.859 20.5938 292.203 20.9062C292.547 21.1875 292.719 21.5781 292.719 22.0781ZM257.422 51.2812C258.359 49.2188 259.203 47 259.953 44.625C260.734 42.2188 261.391 39.7969 261.922 37.3594C262.484 34.9219 262.906 32.5312 263.188 30.1875C263.5 27.8438 263.656 25.6875 263.656 23.7188H258.125C257.688 25.6562 257.328 28.0625 257.047 30.9375C256.797 33.7812 256.672 37.25 256.672 41.3438C256.672 43.625 256.734 45.5469 256.859 47.1094C256.984 48.6406 257.172 50.0312 257.422 51.2812ZM261.781 16.2188C261.5 16.2188 261.094 16.5312 260.562 17.1562C260.031 17.75 259.5 18.8438 258.969 20.4375H263.469C263.312 19.125 263.078 18.0938 262.766 17.3438C262.484 16.5938 262.156 16.2188 261.781 16.2188ZM258.172 54.6562V54.7031V54.6562ZM280.859 65.0156C281.359 63.9531 281.938 62.8125 282.594 61.5938C283.25 60.3438 283.953 59.0781 284.703 57.7969C285.453 56.4844 286.25 55.1875 287.094 53.9062C287.938 52.625 288.812 51.4219 289.719 50.2969C290.625 49.2031 291.531 48.4219 292.438 47.9531C293.375 47.4531 294.25 47.2031 295.062 47.2031C295.875 47.2031 296.578 47.375 297.172 47.7188C297.797 48.0312 298.297 48.4688 298.672 49.0312C299.078 49.5938 299.375 50.25 299.562 51C299.781 51.75 299.891 52.5625 299.891 53.4375C299.891 54.1562 299.812 55.125 299.656 56.3438C299.531 57.5312 299.469 58.7812 299.469 60.0938C299.469 60.8438 299.5 61.5938 299.562 62.3438C299.656 63.0625 299.797 63.7188 299.984 64.3125C300.203 64.875 300.516 65.3438 300.922 65.7188C301.328 66.0625 301.859 66.2344 302.516 66.2344C303.266 66.2344 304.016 66.0312 304.766 65.625C305.516 65.1875 306.25 64.625 306.969 63.9375C307.688 63.2188 308.375 62.4375 309.031 61.5938C309.688 60.7188 310.281 59.8594 310.812 59.0156C311.344 58.1406 311.812 57.3125 312.219 56.5312C312.625 55.7188 312.953 55.0469 313.203 54.5156C313.516 53.7969 314.062 53.4375 314.844 53.4375C315.375 53.4375 315.797 53.625 316.109 54C316.422 54.375 316.578 54.7812 316.578 55.2188C316.578 55.4688 316.531 55.7031 316.438 55.9219C316.312 56.1719 316.062 56.6875 315.688 57.4688C315.344 58.25 314.859 59.1562 314.234 60.1875C313.641 61.2188 312.938 62.2969 312.125 63.4219C311.312 64.5469 310.406 65.5938 309.406 66.5625C308.438 67.5 307.375 68.2812 306.219 68.9062C305.094 69.5 303.906 69.7969 302.656 69.7969C301.219 69.7969 300.062 69.5 299.188 68.9062C298.312 68.2812 297.625 67.5 297.125 66.5625C296.656 65.625 296.328 64.5781 296.141 63.4219C295.984 62.2656 295.906 61.1406 295.906 60.0469C295.906 59.4844 295.922 58.8906 295.953 58.2656C296.016 57.6094 296.078 56.9688 296.141 56.3438C296.203 55.7188 296.25 55.1406 296.281 54.6094C296.344 54.0469 296.375 53.5781 296.375 53.2031C296.375 52.2344 296.234 51.5781 295.953 51.2344C295.703 50.8906 295.406 50.7188 295.062 50.7188C294.562 50.7188 293.984 51.0156 293.328 51.6094C292.703 52.1719 292.031 52.9219 291.312 53.8594C290.625 54.7969 289.922 55.8594 289.203 57.0469C288.516 58.2031 287.844 59.3594 287.188 60.5156C286.531 61.6719 285.938 62.7812 285.406 63.8438C284.875 64.875 284.438 65.7344 284.094 66.4219C283.438 67.7344 282.766 68.6094 282.078 69.0469C281.422 69.5156 280.828 69.75 280.297 69.75C279.328 69.75 278.578 69.375 278.047 68.625C277.547 67.8438 277.297 66.9062 277.297 65.8125V62.8594C277.297 56.9531 277.297 51.3281 277.297 45.9844C277.328 40.6094 277.406 35.625 277.531 31.0312C277.688 26.4062 277.922 22.2344 278.234 18.5156C278.578 14.7656 279.078 11.5781 279.734 8.95312C280.391 6.29687 281.219 4.25 282.219 2.8125C283.25 1.375 284.531 0.65625 286.062 0.65625C287.375 0.65625 288.484 1.01563 289.391 1.73438C290.297 2.45312 291.031 3.4375 291.594 4.6875C292.156 5.90625 292.562 7.34375 292.812 9C293.062 10.625 293.188 12.3438 293.188 14.1562C293.188 17.8438 292.844 21.4688 292.156 25.0312C291.5 28.5625 290.609 32.0156 289.484 35.3906C288.359 38.7656 287.047 42.0625 285.547 45.2812C284.047 48.4688 282.469 51.5781 280.812 54.6094C280.812 55.1719 280.812 55.8438 280.812 56.625C280.812 57.4062 280.812 58.1875 280.812 58.9688C280.812 59.75 280.812 60.4844 280.812 61.1719C280.812 61.8594 280.812 62.4062 280.812 62.8125L280.859 65.0156ZM280.859 47.7188C282.172 44.8438 283.359 42.0469 284.422 39.3281C285.516 36.5781 286.438 33.8438 287.188 31.125C287.969 28.4062 288.578 25.6562 289.016 22.875C289.453 20.0625 289.672 17.1406 289.672 14.1094C289.672 13.6094 289.641 12.8125 289.578 11.7188C289.547 10.625 289.406 9.51562 289.156 8.39062C288.938 7.26562 288.578 6.28125 288.078 5.4375C287.609 4.59375 286.938 4.17188 286.062 4.17188C285.375 4.17188 284.781 4.64062 284.281 5.57812C283.781 6.48437 283.344 7.73438 282.969 9.32812C282.594 10.8906 282.281 12.7188 282.031 14.8125C281.781 16.9062 281.578 19.125 281.422 21.4688C281.266 23.8125 281.141 26.2188 281.047 28.6875C280.984 31.1562 280.938 33.5625 280.906 35.9062C280.875 38.2188 280.859 40.3906 280.859 42.4219C280.859 44.4531 280.859 46.2188 280.859 47.7188Z" fill="black"/>
</svg>
